<?xml version="1.0" encoding="UTF-8"?>
<svg version="1.1" xmlns="http://www.w3.org/2000/svg" width="366" height="260">
<path d="M0 0 C0.77943466 0.00222061 1.55886932 0.00444122 2.36192322 0.00672913 C3.68317955 0.00684242 3.68317955 0.00684242 5.03112793 0.00695801 C5.98841293 0.01211929 6.94569794 0.01728058 7.93199158 0.02259827 C9.39480812 0.02472069 9.39480812 0.02472069 10.88717651 0.02688599 C14.01542675 0.03250319 17.14360656 0.04505859 20.27183533 0.05775452 C22.38706867 0.0627673 24.50230313 0.06733059 26.61753845 0.07142639 C31.81482829 0.0824782 37.01207678 0.09923305 42.20933533 0.12025452 C42.20988009 0.73518296 42.21042486 1.35011141 42.21098614 1.98367405 C42.22601402 17.01047502 42.26870157 32.03692822 42.3414259 47.06354618 C42.37594307 54.33061069 42.40141385 61.59748813 42.40489197 68.86463928 C42.4079505 75.20554944 42.42869167 81.54612531 42.4698599 87.88690656 C42.49102318 91.23832194 42.50123881 94.58886044 42.49548912 97.94040108 C42.46575647 120.54849412 44.73015724 136.57741491 60.39683533 153.87025452 C73.61011705 166.10928505 90.06625113 172.51040846 108.04136658 172.26478577 C126.40988971 171.42676437 141.61413519 163.43883354 154.14683533 150.12025452 C157.88772981 145.75137595 160.74129862 141.3031316 163.20933533 136.12025452 C163.5780072 135.37904358 163.94667908 134.63783264 164.32652283 133.87416077 C168.32558398 125.45278017 169.54494899 117.39506794 169.45933533 108.12025452 C169.4670697 107.28236389 169.47480408 106.44447327 169.48277283 105.58119202 C169.44087603 92.04852689 165.0437504 79.43751468 156.20933533 69.12025452 C155.61249939 68.38033264 155.01566345 67.64041077 154.40074158 66.87806702 C145.57470208 56.32944033 133.01018848 48.19408576 119.20933533 46.12025452 C116.05606433 45.84917686 112.90929501 45.62404994 109.74839783 45.46400452 C107.20933533 45.12025452 107.20933533 45.12025452 105.20933533 43.12025452 C104.96209717 41.29199219 104.96209717 41.29199219 104.96641541 39.05360413 C104.96180046 37.79736488 104.96180046 37.79736488 104.95709229 36.51574707 C104.96787056 35.15788841 104.96787056 35.15788841 104.97886658 33.77259827 C104.9793248 32.84556595 104.97978302 31.91853363 104.98025513 30.96340942 C104.98327879 29.00225038 104.99116847 27.04109376 105.00352478 25.07997131 C105.02178161 22.0666205 105.0240345 19.05357673 105.02378845 16.04017639 C105.02870348 14.13848101 105.03453173 12.23678772 105.04136658 10.33509827 C105.0424794 9.42783493 105.04359222 8.52057159 105.04473877 7.58581543 C105.09329085 1.23629899 105.09329085 1.23629899 106.20933533 0.12025452 C130.27498261 -1.59872029 156.22753709 9.10133863 174.29136658 24.49134827 C176.31841213 26.27661799 176.31841213 26.27661799 179.20933533 28.12025452 C179.20933533 28.78025452 179.20933533 29.44025452 179.20933533 30.12025452 C179.75718689 30.32392639 180.30503845 30.52759827 180.86949158 30.73744202 C184.1231144 32.66028422 186.27402044 35.36438476 188.64683533 38.24525452 C189.38305115 39.1319281 189.38305115 39.1319281 190.13414001 40.03651428 C193.55556579 44.20930527 196.65943456 48.35194009 199.20933533 53.12025452 C199.76105408 54.12185608 200.31277283 55.12345764 200.88121033 56.15541077 C205.4590532 64.83179245 208.78549973 73.59918226 211.20933533 83.12025452 C211.48970642 84.19907898 211.48970642 84.19907898 211.77574158 85.29969788 C213.52913758 92.87765623 213.60635117 100.43527473 213.58433533 108.18275452 C213.58412384 108.86867676 213.58391235 109.554599 213.58369446 110.26130676 C213.5505857 121.02212296 212.68230271 130.88414012 209.20933533 141.12025452 C208.85871033 142.23400452 208.50808533 143.34775452 208.14683533 144.49525452 C203.86036196 156.87839979 196.59248374 168.11786717 188.20933533 178.12025452 C187.75429626 178.70806702 187.2992572 179.29587952 186.83042908 179.90150452 C172.6129454 197.72399118 149.93524791 209.11583611 128.20933533 214.12025452 C127.34437439 214.34712952 126.47941345 214.57400452 125.58824158 214.80775452 C110.25778074 218.33989269 93.3710442 216.68863204 78.20933533 213.12025452 C77.13039001 212.8766217 76.0514447 212.63298889 74.93980408 212.38197327 C59.27345541 208.22398639 43.9849002 199.21291046 32.20933533 188.12025452 C31.87933533 187.13025452 31.54933533 186.14025452 31.20933533 185.12025452 C30.62539001 184.83408264 30.0414447 184.54791077 29.43980408 184.25306702 C16.49807778 177.68021128 7.85468874 155.8812056 3.20933533 143.12025452 C2.91414001 142.31716858 2.6189447 141.51408264 2.31480408 140.68666077 C-2.98838533 124.77709255 -2.14416126 107.63312212 -2.23988342 91.09681702 C-2.26116737 88.4974767 -2.28313606 85.89814191 -2.30575562 83.29881287 C-2.35090211 77.88449936 -2.39000064 72.47019689 -2.42372131 67.05580139 C-2.46278016 60.79394519 -2.51210731 54.53223452 -2.56705159 48.27049887 C-2.61997838 42.22581456 -2.66708097 36.18110455 -2.71123695 30.13634872 C-2.73032688 27.56936556 -2.75068998 25.00239155 -2.77232933 22.43542862 C-2.80131885 18.86895686 -2.82371667 15.30250693 -2.84413147 11.73597717 C-2.85393539 10.66910172 -2.86373932 9.60222626 -2.87384033 8.50302124 C-2.8779895 7.53886795 -2.88213867 6.57471466 -2.88641357 5.5813446 C-2.89211207 4.73895044 -2.89781057 3.89655628 -2.90368176 3.02863503 C-2.75473634 0.51357698 -2.51872286 0.16914825 0 0 Z " fill="#239EEC" transform="translate(138.79066467285156,22.879745483398438)"/>
<path d="M0 0 C14.52 0 29.04 0 44 0 C43.98952637 3.41037598 43.97905273 6.82075195 43.96826172 10.33447266 C43.9350217 21.64198305 43.91288817 32.94949735 43.89637566 44.25704384 C43.88610293 51.10823702 43.87212008 57.95938361 43.84912109 64.81054688 C43.82690861 71.43062605 43.81540829 78.05066979 43.81024551 84.67078781 C43.80656941 87.18794895 43.79939125 89.70510765 43.78853989 92.22224808 C43.65249847 125.10713139 49.36393072 154.79073634 72 180 C72.61230469 180.69480469 73.22460938 181.38960937 73.85546875 182.10546875 C88.0811815 197.30180583 106.90164629 205.88835833 127 210 C127.33 211.32 127.66 212.64 128 214 C99.80825429 218.16052918 70.62342734 213.69609449 46.6875 197.6875 C40.73617054 193.231581 35.31054001 188.18862349 30 183 C29.13117187 182.15695313 28.26234375 181.31390625 27.3671875 180.4453125 C2.16575646 154.45386794 -0.17271082 121.28304035 -0.09765625 87.01171875 C-0.09578839 84.4968112 -0.09436623 81.98190328 -0.09336853 79.46699524 C-0.08995894 73.55649413 -0.0821022 67.64601244 -0.07201904 61.73551923 C-0.05967198 54.33475057 -0.05435839 46.93397947 -0.04882812 39.53320312 C-0.03814194 26.35545734 -0.02056895 13.17773407 0 0 Z " fill="#10335B" transform="translate(31,23)"/>
</svg>
